<svg xmlns="http://www.w3.org/2000/svg" xmlns:xlink="http://www.w3.org/1999/xlink" width="1540" height="928.4"><rect width="1540" height="928.4" rx="5" ry="5" class="a"/><svg y="0%" x="0%"><circle cx="20" cy="20" r="6" fill="#ff5f58"/><circle cx="40" cy="20" r="6" fill="#ffbd2e"/><circle cx="60" cy="20" r="6" fill="#18c132"/></svg><svg height="868.4" viewBox="0 0 150 86.84" width="1500" x="15" xmlns="http://www.w3.org/2000/svg" xmlns:xlink="http://www.w3.org/1999/xlink" y="50"><style>@keyframes p{0%{transform:translateX(0)}.93%{transform:translateX(-450px)}1.69%{transform:translateX(-750px)}1.7%{transform:translateX(-900px)}6.81%{transform:translateX(-1050px)}7.35%{transform:translateX(-1200px)}7.98%{transform:translateX(-1350px)}8.49%{transform:translateX(-1500px)}8.92%{transform:translateX(-1650px)}9.67%{transform:translateX(-1800px)}10.13%{transform:translateX(-1950px)}10.93%{transform:translateX(-2100px)}11.21%{transform:translateX(-2250px)}12.23%{transform:translateX(-2400px)}12.74%{transform:translateX(-2550px)}13.87%{transform:translateX(-2700px)}14.51%{transform:translateX(-2850px)}15.48%{transform:translateX(-3000px)}15.76%{transform:translateX(-3150px)}16.54%{transform:translateX(-3300px)}17.37%{transform:translateX(-3450px)}19.03%{transform:translateX(-3600px)}19.76%{transform:translateX(-3750px)}20.73%{transform:translateX(-3900px)}21.51%{transform:translateX(-4050px)}24.45%{transform:translateX(-4200px)}26.4%{transform:translateX(-4350px)}27.01%{transform:translateX(-4500px)}27.65%{transform:translateX(-4650px)}28.96%{transform:translateX(-4800px)}29.65%{transform:translateX(-4950px)}30.72%{transform:translateX(-5100px)}31.65%{transform:translateX(-5250px)}32.77%{transform:translateX(-5400px)}33.69%{transform:translateX(-5550px)}35.63%{transform:translateX(-5700px)}36.24%{transform:translateX(-5850px)}36.97%{transform:translateX(-6000px)}37.52%{transform:translateX(-6150px)}38.09%{transform:translateX(-6300px)}38.79%{transform:translateX(-6450px)}39.45%{transform:translateX(-6600px)}40.35%{transform:translateX(-6750px)}43%{transform:translateX(-6900px)}49.77%{transform:translateX(-7050px)}51.75%{transform:translateX(-7200px)}52.59%{transform:translateX(-7350px)}53.33%{transform:translateX(-7500px)}54.89%{transform:translateX(-7650px)}55.79%{transform:translateX(-7800px)}56.81%{transform:translateX(-7950px)}57.73%{transform:translateX(-8100px)}58.56%{transform:translateX(-8250px)}59.54%{transform:translateX(-8400px)}60.14%{transform:translateX(-8550px)}60.84%{transform:translateX(-8700px)}61.62%{transform:translateX(-8850px)}62.34%{transform:translateX(-9000px)}62.43%{transform:translateX(-9150px)}62.44%{transform:translateX(-9300px)}64.79%{transform:translateX(-9750px)}74.88%{transform:translateX(-9900px)}75.4%{transform:translateX(-10050px)}76.37%{transform:translateX(-10200px)}77.07%{transform:translateX(-10350px)}77.95%{transform:translateX(-10500px)}78.88%{transform:translateX(-10650px)}83.51%{transform:translateX(-10800px)}83.52%{transform:translateX(-11100px)}84.24%{transform:translateX(-11700px)}85.05%{transform:translateX(-12150px)}to{transform:translateX(-12300px)}}.a{fill:#282d35}.f{fill:#dbab79;white-space:pre}.f,.g,.h{font-weight:700}.g{fill:#b9c0cb;white-space:pre}.h{fill:#66c2cd}.h,.i,.j{white-space:pre}.i{fill:#71bef2;font-weight:700}.j{fill:#d290e4}.j,.k{font-weight:700}.k,.l,.m,.s{fill:#a8cc8c;white-space:pre}.m,.s{fill:#b9c0cb}.s{fill:#e88388;font-weight:700}</style><g font-family="Monaco,Consolas,Menlo,'Bitstream Vera Sans Mono','Powerline Symbols',monospace" font-size="1.67"><defs><symbol id="1"><text y="1.67" class="f">23:28:02</text><text x="9.018" y="1.67" class="g">with</text><text x="14.028" y="1.67" class="f">jgriemsmann</text><text x="26.052" y="1.67" class="g">in</text><text x="29.058" y="1.67" class="h">DevOpsWithDocker2020</text><text x="50.1" y="1.67" class="g">at</text><text x="53.106" y="1.67" class="i">fedora-workstation</text><text x="72.144" y="1.67" class="g">on</text><text x="75.15" y="1.67" class="j"></text><text x="77.154" y="1.67" class="j">part1</text></symbol><symbol id="2"><text y="1.67" class="k">➜</text></symbol><symbol id="3"><text y="1.67" class="k">➜</text><text x="2.004" y="1.67" class="l">docker</text></symbol><symbol id="4"><text y="1.67" class="k">➜</text><text x="2.004" y="1.67" class="l">docker</text><text x="9.018" y="1.67" class="m">container</text></symbol><symbol id="5"><text y="1.67" class="k">➜</text><text x="2.004" y="1.67" class="l">docker</text><text x="9.018" y="1.67" class="m">container</text><text x="19.038" y="1.67" class="m">run</text></symbol><symbol id="6"><text y="1.67" class="k">➜</text><text x="2.004" y="1.67" class="l">docker</text><text x="9.018" y="1.67" class="m">container</text><text x="19.038" y="1.67" class="m">run</text><text x="23.046" y="1.67" class="m">-it</text></symbol><symbol id="7"><text y="1.67" class="k">➜</text><text x="2.004" y="1.67" class="l">docker</text><text x="9.018" y="1.67" class="m">container</text><text x="19.038" y="1.67" class="m">run</text><text x="23.046" y="1.67" class="m">-it</text><text x="27.054" y="1.67" class="m">devopsdockeruh/pull_exercise</text></symbol><symbol id="8"><text y="1.67" class="m">Give</text><text x="5.01" y="1.67" class="m">me</text><text x="8.016" y="1.67" class="m">the</text><text x="12.024" y="1.67" class="m">password:</text><text x="22.044" y="1.67" class="m">basics</text></symbol><symbol id="9"><text y="1.67" class="m">You</text><text x="4.008" y="1.67" class="m">found</text><text x="10.02" y="1.67" class="m">the</text><text x="14.028" y="1.67" class="m">correct</text><text x="22.044" y="1.67" class="m">password.</text><text x="32.064" y="1.67" class="m">Secret</text><text x="39.078" y="1.67" class="m">message</text><text x="47.094" y="1.67" class="m">is:</text></symbol><symbol id="10"><text y="1.67" class="m">&quot;This</text><text x="6.012" y="1.67" class="m">is</text><text x="9.018" y="1.67" class="m">the</text><text x="13.026" y="1.67" class="m">secret</text><text x="20.04" y="1.67" class="m">message&quot;</text></symbol><symbol id="11"><text y="1.67" class="f">23:28:16</text><text x="9.018" y="1.67" class="g">with</text><text x="14.028" y="1.67" class="f">jgriemsmann</text><text x="26.052" y="1.67" class="g">in</text><text x="29.058" y="1.67" class="h">DevOpsWithDocker2020</text><text x="50.1" y="1.67" class="g">at</text><text x="53.106" y="1.67" class="i">fedora-workstation</text><text x="72.144" y="1.67" class="g">on</text><text x="75.15" y="1.67" class="j"></text><text x="77.154" y="1.67" class="j">part1</text><text x="83.166" y="1.67" class="g">took</text><text x="88.176" y="1.67" class="f">3s</text></symbol><symbol id="a"><path fill="transparent" d="M0 0h150v40H0z"/></symbol><symbol id="b"><path fill="#6f7683" d="M0 0h1.102v2.171H0z"/></symbol></defs><path class="a" d="M0 0h150v86.84H0z"/><g style="animation-duration:17.263613s;animation-iteration-count:infinite;animation-name:p;animation-timing-function:steps(1,end)"><svg width="12450"><svg><use xlink:href="#a"/><use xlink:href="#b" x="-.004"/></svg><svg x="150"><use xlink:href="#a"/><use xlink:href="#b" x="-.004"/></svg><svg x="300"><use xlink:href="#a"/><use xlink:href="#b" x="-.004"/></svg><svg x="450"><use xlink:href="#a"/><use xlink:href="#b" x="-.004"/></svg><svg x="600"><use xlink:href="#a"/><use xlink:href="#b" x="1.996" y="4.317"/><use xlink:href="#1" y="2.171"/><use xlink:href="#2" y="4.342"/></svg><svg x="750"><use xlink:href="#a"/><use xlink:href="#b" x="1.996" y="4.317"/><use xlink:href="#1" y="2.171"/><use xlink:href="#2" y="4.342"/></svg><svg x="900"><use xlink:href="#a"/><use xlink:href="#b" x="1.996" y="4.317"/><use xlink:href="#1" y="2.171"/><use xlink:href="#2" y="4.342"/></svg><svg x="1050"><use xlink:href="#a"/><use xlink:href="#b" x="2.996" y="4.317"/><use xlink:href="#1" y="2.171"/><text y="6.012" class="k">➜</text><text x="2.004" y="6.012" class="l">d</text></svg><svg x="1200"><use xlink:href="#a"/><use xlink:href="#b" x="3.996" y="4.317"/><use xlink:href="#1" y="2.171"/><text y="6.012" class="k">➜</text><text x="2.004" y="6.012" style="white-space:pre" fill="#dbab79">do</text></svg><svg x="1350"><use xlink:href="#a"/><use xlink:href="#b" x="4.996" y="4.317"/><use xlink:href="#1" y="2.171"/><text y="6.012" class="k">➜</text><text x="2.004" y="6.012" class="s">doc</text></svg><svg x="1500"><use xlink:href="#a"/><use xlink:href="#b" x="5.996" y="4.317"/><use xlink:href="#1" y="2.171"/><text y="6.012" class="k">➜</text><text x="2.004" y="6.012" class="s">dock</text></svg><svg x="1650"><use xlink:href="#a"/><use xlink:href="#b" x="6.996" y="4.317"/><use xlink:href="#1" y="2.171"/><text y="6.012" class="k">➜</text><text x="2.004" y="6.012" class="s">docke</text></svg><svg x="1800"><use xlink:href="#a"/><use xlink:href="#b" x="7.996" y="4.317"/><use xlink:href="#1" y="2.171"/><use xlink:href="#3" y="4.342"/></svg><svg x="1950"><use xlink:href="#a"/><use xlink:href="#b" x="8.996" y="4.317"/><use xlink:href="#1" y="2.171"/><use xlink:href="#3" y="4.342"/></svg><svg x="2100"><use xlink:href="#a"/><use xlink:href="#b" x="9.996" y="4.317"/><use xlink:href="#1" y="2.171"/><text y="6.012" class="k">➜</text><text x="2.004" y="6.012" class="l">docker</text><text x="9.018" y="6.012" class="m">c</text></svg><svg x="2250"><use xlink:href="#a"/><use xlink:href="#b" x="10.996" y="4.317"/><use xlink:href="#1" y="2.171"/><text y="6.012" class="k">➜</text><text x="2.004" y="6.012" class="l">docker</text><text x="9.018" y="6.012" class="m">co</text></svg><svg x="2400"><use xlink:href="#a"/><use xlink:href="#b" x="11.996" y="4.317"/><use xlink:href="#1" y="2.171"/><text y="6.012" class="k">➜</text><text x="2.004" y="6.012" class="l">docker</text><text x="9.018" y="6.012" class="m">con</text></svg><svg x="2550"><use xlink:href="#a"/><use xlink:href="#b" x="12.996" y="4.317"/><use xlink:href="#1" y="2.171"/><text y="6.012" class="k">➜</text><text x="2.004" y="6.012" class="l">docker</text><text x="9.018" y="6.012" class="m">cont</text></svg><svg x="2700"><use xlink:href="#a"/><use xlink:href="#b" x="13.996" y="4.317"/><use xlink:href="#1" y="2.171"/><text y="6.012" class="k">➜</text><text x="2.004" y="6.012" class="l">docker</text><text x="9.018" y="6.012" class="m">conta</text></svg><svg x="2850"><use xlink:href="#a"/><use xlink:href="#b" x="14.996" y="4.317"/><use xlink:href="#1" y="2.171"/><text y="6.012" class="k">➜</text><text x="2.004" y="6.012" class="l">docker</text><text x="9.018" y="6.012" class="m">contai</text></svg><svg x="3000"><use xlink:href="#a"/><use xlink:href="#b" x="15.996" y="4.317"/><use xlink:href="#1" y="2.171"/><text y="6.012" class="k">➜</text><text x="2.004" y="6.012" class="l">docker</text><text x="9.018" y="6.012" class="m">contain</text></svg><svg x="3150"><use xlink:href="#a"/><use xlink:href="#b" x="16.996" y="4.317"/><use xlink:href="#1" y="2.171"/><text y="6.012" class="k">➜</text><text x="2.004" y="6.012" class="l">docker</text><text x="9.018" y="6.012" class="m">containe</text></svg><svg x="3300"><use xlink:href="#a"/><use xlink:href="#b" x="17.996" y="4.317"/><use xlink:href="#1" y="2.171"/><use xlink:href="#4" y="4.342"/></svg><svg x="3450"><use xlink:href="#a"/><use xlink:href="#b" x="18.996" y="4.317"/><use xlink:href="#1" y="2.171"/><use xlink:href="#4" y="4.342"/></svg><svg x="3600"><use xlink:href="#a"/><use xlink:href="#b" x="19.996" y="4.317"/><use xlink:href="#1" y="2.171"/><text y="6.012" class="k">➜</text><text x="2.004" y="6.012" class="l">docker</text><text x="9.018" y="6.012" class="m">container</text><text x="19.038" y="6.012" class="m">r</text></svg><svg x="3750"><use xlink:href="#a"/><use xlink:href="#b" x="20.996" y="4.317"/><use xlink:href="#1" y="2.171"/><text y="6.012" class="k">➜</text><text x="2.004" y="6.012" class="l">docker</text><text x="9.018" y="6.012" class="m">container</text><text x="19.038" y="6.012" class="m">ru</text></svg><svg x="3900"><use xlink:href="#a"/><use xlink:href="#b" x="21.996" y="4.317"/><use xlink:href="#1" y="2.171"/><use xlink:href="#5" y="4.342"/></svg><svg x="4050"><use xlink:href="#a"/><use xlink:href="#b" x="22.996" y="4.317"/><use xlink:href="#1" y="2.171"/><use xlink:href="#5" y="4.342"/></svg><svg x="4200"><use xlink:href="#a"/><use xlink:href="#b" x="23.996" y="4.317"/><use xlink:href="#1" y="2.171"/><text y="6.012" class="k">➜</text><text x="2.004" y="6.012" class="l">docker</text><text x="9.018" y="6.012" class="m">container</text><text x="19.038" y="6.012" class="m">run</text><text x="23.046" y="6.012" class="m">-</text></svg><svg x="4350"><use xlink:href="#a"/><use xlink:href="#b" x="24.996" y="4.317"/><use xlink:href="#1" y="2.171"/><text y="6.012" class="k">➜</text><text x="2.004" y="6.012" class="l">docker</text><text x="9.018" y="6.012" class="m">container</text><text x="19.038" y="6.012" class="m">run</text><text x="23.046" y="6.012" class="m">-i</text></svg><svg x="4500"><use xlink:href="#a"/><use xlink:href="#b" x="25.996" y="4.317"/><use xlink:href="#1" y="2.171"/><use xlink:href="#6" y="4.342"/></svg><svg x="4650"><use xlink:href="#a"/><use xlink:href="#b" x="26.996" y="4.317"/><use xlink:href="#1" y="2.171"/><use xlink:href="#6" y="4.342"/></svg><svg x="4800"><use xlink:href="#a"/><use xlink:href="#b" x="27.996" y="4.317"/><use xlink:href="#1" y="2.171"/><text y="6.012" class="k">➜</text><text x="2.004" y="6.012" class="l">docker</text><text x="9.018" y="6.012" class="m">container</text><text x="19.038" y="6.012" class="m">run</text><text x="23.046" y="6.012" class="m">-it</text><text x="27.054" y="6.012" class="m">d</text></svg><svg x="4950"><use xlink:href="#a"/><use xlink:href="#b" x="28.996" y="4.317"/><use xlink:href="#1" y="2.171"/><text y="6.012" class="k">➜</text><text x="2.004" y="6.012" class="l">docker</text><text x="9.018" y="6.012" class="m">container</text><text x="19.038" y="6.012" class="m">run</text><text x="23.046" y="6.012" class="m">-it</text><text x="27.054" y="6.012" class="m">de</text></svg><svg x="5100"><use xlink:href="#a"/><use xlink:href="#b" x="29.996" y="4.317"/><use xlink:href="#1" y="2.171"/><text y="6.012" class="k">➜</text><text x="2.004" y="6.012" class="l">docker</text><text x="9.018" y="6.012" class="m">container</text><text x="19.038" y="6.012" class="m">run</text><text x="23.046" y="6.012" class="m">-it</text><text x="27.054" y="6.012" class="m">dev</text></svg><svg x="5250"><use xlink:href="#a"/><use xlink:href="#b" x="30.996" y="4.317"/><use xlink:href="#1" y="2.171"/><text y="6.012" class="k">➜</text><text x="2.004" y="6.012" class="l">docker</text><text x="9.018" y="6.012" class="m">container</text><text x="19.038" y="6.012" class="m">run</text><text x="23.046" y="6.012" class="m">-it</text><text x="27.054" y="6.012" class="m">devo</text></svg><svg x="5400"><use xlink:href="#a"/><use xlink:href="#b" x="31.996" y="4.317"/><use xlink:href="#1" y="2.171"/><text y="6.012" class="k">➜</text><text x="2.004" y="6.012" class="l">docker</text><text x="9.018" y="6.012" class="m">container</text><text x="19.038" y="6.012" class="m">run</text><text x="23.046" y="6.012" class="m">-it</text><text x="27.054" y="6.012" class="m">devop</text></svg><svg x="5550"><use xlink:href="#a"/><use xlink:href="#b" x="32.996" y="4.317"/><use xlink:href="#1" y="2.171"/><text y="6.012" class="k">➜</text><text x="2.004" y="6.012" class="l">docker</text><text x="9.018" y="6.012" class="m">container</text><text x="19.038" y="6.012" class="m">run</text><text x="23.046" y="6.012" class="m">-it</text><text x="27.054" y="6.012" class="m">devops</text></svg><svg x="5700"><use xlink:href="#a"/><use xlink:href="#b" x="33.996" y="4.317"/><use xlink:href="#1" y="2.171"/><text y="6.012" class="k">➜</text><text x="2.004" y="6.012" class="l">docker</text><text x="9.018" y="6.012" class="m">container</text><text x="19.038" y="6.012" class="m">run</text><text x="23.046" y="6.012" class="m">-it</text><text x="27.054" y="6.012" class="m">devopsd</text></svg><svg x="5850"><use xlink:href="#a"/><use xlink:href="#b" x="34.996" y="4.317"/><use xlink:href="#1" y="2.171"/><text y="6.012" class="k">➜</text><text x="2.004" y="6.012" class="l">docker</text><text x="9.018" y="6.012" class="m">container</text><text x="19.038" y="6.012" class="m">run</text><text x="23.046" y="6.012" class="m">-it</text><text x="27.054" y="6.012" class="m">devopsdo</text></svg><svg x="6000"><use xlink:href="#a"/><use xlink:href="#b" x="35.996" y="4.317"/><use xlink:href="#1" y="2.171"/><text y="6.012" class="k">➜</text><text x="2.004" y="6.012" class="l">docker</text><text x="9.018" y="6.012" class="m">container</text><text x="19.038" y="6.012" class="m">run</text><text x="23.046" y="6.012" class="m">-it</text><text x="27.054" y="6.012" class="m">devopsdoc</text></svg><svg x="6150"><use xlink:href="#a"/><use xlink:href="#b" x="36.996" y="4.317"/><use xlink:href="#1" y="2.171"/><text y="6.012" class="k">➜</text><text x="2.004" y="6.012" class="l">docker</text><text x="9.018" y="6.012" class="m">container</text><text x="19.038" y="6.012" class="m">run</text><text x="23.046" y="6.012" class="m">-it</text><text x="27.054" y="6.012" class="m">devopsdock</text></svg><svg x="6300"><use xlink:href="#a"/><use xlink:href="#b" x="37.996" y="4.317"/><use xlink:href="#1" y="2.171"/><text y="6.012" class="k">➜</text><text x="2.004" y="6.012" class="l">docker</text><text x="9.018" y="6.012" class="m">container</text><text x="19.038" y="6.012" class="m">run</text><text x="23.046" y="6.012" class="m">-it</text><text x="27.054" y="6.012" class="m">devopsdocke</text></svg><svg x="6450"><use xlink:href="#a"/><use xlink:href="#b" x="38.996" y="4.317"/><use xlink:href="#1" y="2.171"/><text y="6.012" class="k">➜</text><text x="2.004" y="6.012" class="l">docker</text><text x="9.018" y="6.012" class="m">container</text><text x="19.038" y="6.012" class="m">run</text><text x="23.046" y="6.012" class="m">-it</text><text x="27.054" y="6.012" class="m">devopsdocker</text></svg><svg x="6600"><use xlink:href="#a"/><use xlink:href="#b" x="39.996" y="4.317"/><use xlink:href="#1" y="2.171"/><text y="6.012" class="k">➜</text><text x="2.004" y="6.012" class="l">docker</text><text x="9.018" y="6.012" class="m">container</text><text x="19.038" y="6.012" class="m">run</text><text x="23.046" y="6.012" class="m">-it</text><text x="27.054" y="6.012" class="m">devopsdockeru</text></svg><svg x="6750"><use xlink:href="#a"/><use xlink:href="#b" x="40.996" y="4.317"/><use xlink:href="#1" y="2.171"/><text y="6.012" class="k">➜</text><text x="2.004" y="6.012" class="l">docker</text><text x="9.018" y="6.012" class="m">container</text><text x="19.038" y="6.012" class="m">run</text><text x="23.046" y="6.012" class="m">-it</text><text x="27.054" y="6.012" class="m">devopsdockeruh</text></svg><svg x="6900"><use xlink:href="#a"/><use xlink:href="#b" x="41.996" y="4.317"/><use xlink:href="#1" y="2.171"/><text y="6.012" class="k">➜</text><text x="2.004" y="6.012" class="l">docker</text><text x="9.018" y="6.012" class="m">container</text><text x="19.038" y="6.012" class="m">run</text><text x="23.046" y="6.012" class="m">-it</text><text x="27.054" y="6.012" class="m">devopsdockeruh/</text></svg><svg x="7050"><use xlink:href="#a"/><use xlink:href="#b" x="42.996" y="4.317"/><use xlink:href="#1" y="2.171"/><text y="6.012" class="k">➜</text><text x="2.004" y="6.012" class="l">docker</text><text x="9.018" y="6.012" class="m">container</text><text x="19.038" y="6.012" class="m">run</text><text x="23.046" y="6.012" class="m">-it</text><text x="27.054" y="6.012" class="m">devopsdockeruh/p</text></svg><svg x="7200"><use xlink:href="#a"/><use xlink:href="#b" x="43.996" y="4.317"/><use xlink:href="#1" y="2.171"/><text y="6.012" class="k">➜</text><text x="2.004" y="6.012" class="l">docker</text><text x="9.018" y="6.012" class="m">container</text><text x="19.038" y="6.012" class="m">run</text><text x="23.046" y="6.012" class="m">-it</text><text x="27.054" y="6.012" class="m">devopsdockeruh/pu</text></svg><svg x="7350"><use xlink:href="#a"/><use xlink:href="#b" x="44.996" y="4.317"/><use xlink:href="#1" y="2.171"/><text y="6.012" class="k">➜</text><text x="2.004" y="6.012" class="l">docker</text><text x="9.018" y="6.012" class="m">container</text><text x="19.038" y="6.012" class="m">run</text><text x="23.046" y="6.012" class="m">-it</text><text x="27.054" y="6.012" class="m">devopsdockeruh/pul</text></svg><svg x="7500"><use xlink:href="#a"/><use xlink:href="#b" x="45.996" y="4.317"/><use xlink:href="#1" y="2.171"/><text y="6.012" class="k">➜</text><text x="2.004" y="6.012" class="l">docker</text><text x="9.018" y="6.012" class="m">container</text><text x="19.038" y="6.012" class="m">run</text><text x="23.046" y="6.012" class="m">-it</text><text x="27.054" y="6.012" class="m">devopsdockeruh/pull</text></svg><svg x="7650"><use xlink:href="#a"/><use xlink:href="#b" x="46.996" y="4.317"/><use xlink:href="#1" y="2.171"/><text y="6.012" class="k">➜</text><text x="2.004" y="6.012" class="l">docker</text><text x="9.018" y="6.012" class="m">container</text><text x="19.038" y="6.012" class="m">run</text><text x="23.046" y="6.012" class="m">-it</text><text x="27.054" y="6.012" class="m">devopsdockeruh/pull_</text></svg><svg x="7800"><use xlink:href="#a"/><use xlink:href="#b" x="47.996" y="4.317"/><use xlink:href="#1" y="2.171"/><text y="6.012" class="k">➜</text><text x="2.004" y="6.012" class="l">docker</text><text x="9.018" y="6.012" class="m">container</text><text x="19.038" y="6.012" class="m">run</text><text x="23.046" y="6.012" class="m">-it</text><text x="27.054" y="6.012" class="m">devopsdockeruh/pull_e</text></svg><svg x="7950"><use xlink:href="#a"/><use xlink:href="#b" x="48.996" y="4.317"/><use xlink:href="#1" y="2.171"/><text y="6.012" class="k">➜</text><text x="2.004" y="6.012" class="l">docker</text><text x="9.018" y="6.012" class="m">container</text><text x="19.038" y="6.012" class="m">run</text><text x="23.046" y="6.012" class="m">-it</text><text x="27.054" y="6.012" class="m">devopsdockeruh/pull_ex</text></svg><svg x="8100"><use xlink:href="#a"/><use xlink:href="#b" x="49.996" y="4.317"/><use xlink:href="#1" y="2.171"/><text y="6.012" class="k">➜</text><text x="2.004" y="6.012" class="l">docker</text><text x="9.018" y="6.012" class="m">container</text><text x="19.038" y="6.012" class="m">run</text><text x="23.046" y="6.012" class="m">-it</text><text x="27.054" y="6.012" class="m">devopsdockeruh/pull_exe</text></svg><svg x="8250"><use xlink:href="#a"/><use xlink:href="#b" x="50.996" y="4.317"/><use xlink:href="#1" y="2.171"/><text y="6.012" class="k">➜</text><text x="2.004" y="6.012" class="l">docker</text><text x="9.018" y="6.012" class="m">container</text><text x="19.038" y="6.012" class="m">run</text><text x="23.046" y="6.012" class="m">-it</text><text x="27.054" y="6.012" class="m">devopsdockeruh/pull_exer</text></svg><svg x="8400"><use xlink:href="#a"/><use xlink:href="#b" x="51.996" y="4.317"/><use xlink:href="#1" y="2.171"/><text y="6.012" class="k">➜</text><text x="2.004" y="6.012" class="l">docker</text><text x="9.018" y="6.012" class="m">container</text><text x="19.038" y="6.012" class="m">run</text><text x="23.046" y="6.012" class="m">-it</text><text x="27.054" y="6.012" class="m">devopsdockeruh/pull_exerc</text></svg><svg x="8550"><use xlink:href="#a"/><use xlink:href="#b" x="52.996" y="4.317"/><use xlink:href="#1" y="2.171"/><text y="6.012" class="k">➜</text><text x="2.004" y="6.012" class="l">docker</text><text x="9.018" y="6.012" class="m">container</text><text x="19.038" y="6.012" class="m">run</text><text x="23.046" y="6.012" class="m">-it</text><text x="27.054" y="6.012" class="m">devopsdockeruh/pull_exerci</text></svg><svg x="8700"><use xlink:href="#a"/><use xlink:href="#b" x="53.996" y="4.317"/><use xlink:href="#1" y="2.171"/><text y="6.012" class="k">➜</text><text x="2.004" y="6.012" class="l">docker</text><text x="9.018" y="6.012" class="m">container</text><text x="19.038" y="6.012" class="m">run</text><text x="23.046" y="6.012" class="m">-it</text><text x="27.054" y="6.012" class="m">devopsdockeruh/pull_exercis</text></svg><svg x="8850"><use xlink:href="#a"/><use xlink:href="#b" x="54.996" y="4.317"/><use xlink:href="#1" y="2.171"/><use xlink:href="#7" y="4.342"/></svg><svg x="9000"><use xlink:href="#a"/><use xlink:href="#b" x="54.996" y="4.317"/><use xlink:href="#1" y="2.171"/><use xlink:href="#7" y="4.342"/></svg><svg x="9150"><use xlink:href="#a"/><use xlink:href="#b" x="-.004" y="6.488"/><use xlink:href="#1" y="2.171"/><use xlink:href="#7" y="4.342"/></svg><svg x="9300"><use xlink:href="#a"/><use xlink:href="#b" x="-.004" y="6.488"/><use xlink:href="#1" y="2.171"/><use xlink:href="#7" y="4.342"/></svg><svg x="9450"><use xlink:href="#a"/><use xlink:href="#b" x="-.004" y="6.488"/><use xlink:href="#1" y="2.171"/><use xlink:href="#7" y="4.342"/></svg><svg x="9600"><use xlink:href="#a"/><use xlink:href="#b" x="-.004" y="6.488"/><use xlink:href="#1" y="2.171"/><use xlink:href="#7" y="4.342"/></svg><svg x="9750"><use xlink:href="#a"/><use xlink:href="#b" x="21.996" y="6.488"/><use xlink:href="#1" y="2.171"/><use xlink:href="#7" y="4.342"/><text y="8.183" class="m">Give</text><text x="5.01" y="8.183" class="m">me</text><text x="8.016" y="8.183" class="m">the</text><text x="12.024" y="8.183" class="m">password:</text></svg><svg x="9900"><use xlink:href="#a"/><use xlink:href="#b" x="22.996" y="6.488"/><use xlink:href="#1" y="2.171"/><use xlink:href="#7" y="4.342"/><text y="8.183" class="m">Give</text><text x="5.01" y="8.183" class="m">me</text><text x="8.016" y="8.183" class="m">the</text><text x="12.024" y="8.183" class="m">password:</text><text x="22.044" y="8.183" class="m">b</text></svg><svg x="10050"><use xlink:href="#a"/><use xlink:href="#b" x="23.996" y="6.488"/><use xlink:href="#1" y="2.171"/><use xlink:href="#7" y="4.342"/><text y="8.183" class="m">Give</text><text x="5.01" y="8.183" class="m">me</text><text x="8.016" y="8.183" class="m">the</text><text x="12.024" y="8.183" class="m">password:</text><text x="22.044" y="8.183" class="m">ba</text></svg><svg x="10200"><use xlink:href="#a"/><use xlink:href="#b" x="24.996" y="6.488"/><use xlink:href="#1" y="2.171"/><use xlink:href="#7" y="4.342"/><text y="8.183" class="m">Give</text><text x="5.01" y="8.183" class="m">me</text><text x="8.016" y="8.183" class="m">the</text><text x="12.024" y="8.183" class="m">password:</text><text x="22.044" y="8.183" class="m">bas</text></svg><svg x="10350"><use xlink:href="#a"/><use xlink:href="#b" x="25.996" y="6.488"/><use xlink:href="#1" y="2.171"/><use xlink:href="#7" y="4.342"/><text y="8.183" class="m">Give</text><text x="5.01" y="8.183" class="m">me</text><text x="8.016" y="8.183" class="m">the</text><text x="12.024" y="8.183" class="m">password:</text><text x="22.044" y="8.183" class="m">basi</text></svg><svg x="10500"><use xlink:href="#a"/><use xlink:href="#b" x="26.996" y="6.488"/><use xlink:href="#1" y="2.171"/><use xlink:href="#7" y="4.342"/><text y="8.183" class="m">Give</text><text x="5.01" y="8.183" class="m">me</text><text x="8.016" y="8.183" class="m">the</text><text x="12.024" y="8.183" class="m">password:</text><text x="22.044" y="8.183" class="m">basic</text></svg><svg x="10650"><use xlink:href="#a"/><use xlink:href="#b" x="27.996" y="6.488"/><use xlink:href="#1" y="2.171"/><use xlink:href="#7" y="4.342"/><use xlink:href="#8" y="6.513"/></svg><svg x="10800"><use xlink:href="#a"/><use xlink:href="#b" x="-.004" y="8.659"/><use xlink:href="#1" y="2.171"/><use xlink:href="#7" y="4.342"/><use xlink:href="#8" y="6.513"/></svg><svg x="10950"><use xlink:href="#a"/><use xlink:href="#b" x="-.004" y="13.001"/><use xlink:href="#1" y="2.171"/><use xlink:href="#7" y="4.342"/><use xlink:href="#8" y="6.513"/><use xlink:href="#9" y="8.684"/><use xlink:href="#10" y="10.855"/></svg><svg x="11100"><use xlink:href="#a"/><use xlink:href="#b" x="-.004" y="15.172"/><use xlink:href="#1" y="2.171"/><use xlink:href="#7" y="4.342"/><use xlink:href="#8" y="6.513"/><use xlink:href="#9" y="8.684"/><use xlink:href="#10" y="10.855"/></svg><svg x="11250"><use xlink:href="#a"/><use xlink:href="#b" x="-.004" y="15.172"/><use xlink:href="#1" y="2.171"/><use xlink:href="#7" y="4.342"/><use xlink:href="#8" y="6.513"/><use xlink:href="#9" y="8.684"/><use xlink:href="#10" y="10.855"/></svg><svg x="11400"><use xlink:href="#a"/><use xlink:href="#b" x="-.004" y="15.172"/><use xlink:href="#1" y="2.171"/><use xlink:href="#7" y="4.342"/><use xlink:href="#8" y="6.513"/><use xlink:href="#9" y="8.684"/><use xlink:href="#10" y="10.855"/></svg><svg x="11550"><use xlink:href="#a"/><use xlink:href="#b" x="-.004" y="15.172"/><use xlink:href="#1" y="2.171"/><use xlink:href="#7" y="4.342"/><use xlink:href="#8" y="6.513"/><use xlink:href="#9" y="8.684"/><use xlink:href="#10" y="10.855"/></svg><svg x="11700"><use xlink:href="#a"/><use xlink:href="#b" x="-.004" y="15.172"/><use xlink:href="#1" y="2.171"/><use xlink:href="#7" y="4.342"/><use xlink:href="#8" y="6.513"/><use xlink:href="#9" y="8.684"/><use xlink:href="#10" y="10.855"/></svg><svg x="11850"><use xlink:href="#a"/><use xlink:href="#b" x="1.996" y="19.514"/><use xlink:href="#1" y="2.171"/><use xlink:href="#7" y="4.342"/><use xlink:href="#8" y="6.513"/><use xlink:href="#9" y="8.684"/><use xlink:href="#10" y="10.855"/><use xlink:href="#11" y="17.368"/><use xlink:href="#2" y="19.539"/></svg><svg x="12000"><use xlink:href="#a"/><use xlink:href="#b" x="1.996" y="19.514"/><use xlink:href="#1" y="2.171"/><use xlink:href="#7" y="4.342"/><use xlink:href="#8" y="6.513"/><use xlink:href="#9" y="8.684"/><use xlink:href="#10" y="10.855"/><use xlink:href="#11" y="17.368"/><use xlink:href="#2" y="19.539"/></svg><svg x="12150"><use xlink:href="#a"/><use xlink:href="#b" x="1.996" y="19.514"/><use xlink:href="#1" y="2.171"/><use xlink:href="#7" y="4.342"/><use xlink:href="#8" y="6.513"/><use xlink:href="#9" y="8.684"/><use xlink:href="#10" y="10.855"/><use xlink:href="#11" y="17.368"/><use xlink:href="#2" y="19.539"/></svg><svg x="12300"><use xlink:href="#a"/><use xlink:href="#b" x="-.004" y="21.685"/><use xlink:href="#1" y="2.171"/><use xlink:href="#7" y="4.342"/><use xlink:href="#8" y="6.513"/><use xlink:href="#9" y="8.684"/><use xlink:href="#10" y="10.855"/><use xlink:href="#11" y="17.368"/><use xlink:href="#2" y="19.539"/></svg></svg></g></g></svg></svg>